<mxfile host="app.diagrams.net" modified="2023-02-13T03:21:36.483Z" agent="5.0 (Macintosh; Intel Mac OS X 10_15_7) AppleWebKit/537.36 (KHTML, like Gecko) Chrome/105.0.0.0 Safari/537.36" etag="X7nqYV-jEkHXwtxEk7MO" version="20.8.20" type="github">
  <diagram name="第 1 页" id="CrhkFErtCrmMumsLuy4r">
    <mxGraphModel dx="1194" dy="-460" grid="1" gridSize="10" guides="1" tooltips="1" connect="1" arrows="1" fold="1" page="1" pageScale="1" pageWidth="827" pageHeight="1169" math="0" shadow="0">
      <root>
        <mxCell id="0" />
        <mxCell id="1" parent="0" />
        <mxCell id="0pXaRHInOoJntql10peK-1" value="" style="rounded=0;whiteSpace=wrap;html=1;labelBackgroundColor=#FF6666;strokeColor=#B3B3B3;" vertex="1" parent="1">
          <mxGeometry x="160" y="1280" width="450" height="260" as="geometry" />
        </mxCell>
        <mxCell id="0pXaRHInOoJntql10peK-2" value="" style="shape=cube;whiteSpace=wrap;html=1;boundedLbl=1;backgroundOutline=1;darkOpacity=0.05;darkOpacity2=0.1;fillColor=#a0522d;strokeColor=#6D1F00;fontColor=#ffffff;" vertex="1" parent="1">
          <mxGeometry x="460" y="1400" width="120" height="80" as="geometry" />
        </mxCell>
        <mxCell id="0pXaRHInOoJntql10peK-3" value="" style="shape=cube;whiteSpace=wrap;html=1;boundedLbl=1;backgroundOutline=1;darkOpacity=0.05;darkOpacity2=0.1;labelBackgroundColor=#FF6666;size=10;fillColor=#dae8fc;strokeColor=#6c8ebf;gradientColor=#7ea6e0;" vertex="1" parent="1">
          <mxGeometry x="480" y="1350" width="70" height="60" as="geometry" />
        </mxCell>
        <mxCell id="0pXaRHInOoJntql10peK-5" value="&lt;font style=&quot;font-size: 14px;&quot;&gt;Process Enigne .jar library&lt;/font&gt;" style="text;html=1;strokeColor=none;fillColor=none;align=center;verticalAlign=middle;whiteSpace=wrap;rounded=0;" vertex="1" parent="1">
          <mxGeometry x="240" y="1350" width="110" height="40" as="geometry" />
        </mxCell>
        <mxCell id="0pXaRHInOoJntql10peK-7" value="&lt;font style=&quot;font-size: 14px;&quot;&gt;Java Application .jar (spring容器）&lt;/font&gt;" style="text;html=1;strokeColor=none;fillColor=none;align=center;verticalAlign=middle;whiteSpace=wrap;rounded=0;" vertex="1" parent="1">
          <mxGeometry x="230" y="1420" width="120" height="40" as="geometry" />
        </mxCell>
        <mxCell id="0pXaRHInOoJntql10peK-8" value="" style="endArrow=none;html=1;rounded=0;fontSize=14;exitX=1;exitY=0.5;exitDx=0;exitDy=0;" edge="1" parent="1" source="0pXaRHInOoJntql10peK-5">
          <mxGeometry width="50" height="50" relative="1" as="geometry">
            <mxPoint x="370" y="1369.5" as="sourcePoint" />
            <mxPoint x="430" y="1369.5" as="targetPoint" />
          </mxGeometry>
        </mxCell>
        <mxCell id="0pXaRHInOoJntql10peK-10" value="" style="endArrow=none;html=1;rounded=0;fontSize=14;exitX=1;exitY=0.5;exitDx=0;exitDy=0;" edge="1" parent="1">
          <mxGeometry width="50" height="50" relative="1" as="geometry">
            <mxPoint x="350" y="1441" as="sourcePoint" />
            <mxPoint x="430" y="1440.5" as="targetPoint" />
          </mxGeometry>
        </mxCell>
      </root>
    </mxGraphModel>
  </diagram>
</mxfile>
